<svg xmlns="http://www.w3.org/2000/svg" aria-hidden="true" style="position:absolute;width:0;height:0;overflow:hidden">
  <defs>
    <symbol id="icon-instagram" viewBox="0 0 32 32">
      <path
        d="M23.169 0H8.831C3.962 0 0 3.962 0 8.831v14.338C0 28.038 3.961 32 8.831 32h14.338C28.039 32 32 28.038 32 23.169V8.831C32 3.962 28.039 0 23.169 0zm5.992 23.169a5.999 5.999 0 0 1-5.992 5.992H8.831a5.998 5.998 0 0 1-5.991-5.992V8.831a5.999 5.999 0 0 1 5.991-5.992h14.338a5.999 5.999 0 0 1 5.992 5.992v14.338z" />
      <path
        d="M16 7.755c-4.547 0-8.246 3.699-8.246 8.246s3.699 8.245 8.246 8.245 8.246-3.699 8.246-8.245c0-4.547-3.699-8.246-8.246-8.246zm0 13.651c-2.981 0-5.406-2.425-5.406-5.406s2.425-5.406 5.406-5.406 5.406 2.425 5.406 5.406A5.412 5.412 0 0 1 16 21.406zm8.591-16.059c-.547 0-1.084.221-1.471.609a2.093 2.093 0 0 0-.611 1.473 2.1 2.1 0 0 0 .611 1.473c.386.386.924.609 1.471.609.549 0 1.085-.223 1.473-.609.388-.388.609-.926.609-1.473 0-.549-.221-1.086-.609-1.473a2.091 2.091 0 0 0-1.473-.609z" />
    </symbol>
    <symbol id="icon-tiktok" viewBox="0 0 32 32">
      <path
        d="M26.119 8.915c-2.714-.596-4.759-2.855-5.025-5.634l-.002-.026v-.588h-4.593v18.229a3.862 3.862 0 0 1-6.928 2.334l-.007-.009a3.86 3.86 0 0 1 4.272-6.006l-.027-.008V12.54a8.439 8.439 0 0 0-7.191 14.258l-.002-.002a8.44 8.44 0 0 0 14.476-5.898v-9.315a10.825 10.825 0 0 0 6.345 2.035h.02-.001V9.054h-.008c-.471 0-.93-.05-1.372-.146l.042.008z" />
    </symbol>
    <symbol id="icon-logo" viewBox="0 0 32 32">
      <path
        d="M29 4.157a3.125 3.125 0 0 0-3.117-3.095L6.103.999A3.104 3.104 0 0 0 3 4.094v20.405c0 1.706 1.393 3 3.103 3h16.898l-.813-2.75 6.813 6.25zm-8.709 16.456s-.545-.649-1-1.207c1.984-.559 2.741-1.781 2.741-1.781a8.516 8.516 0 0 1-1.681.87l-.059.02c-.627.269-1.363.494-2.127.639l-.067.011a10.661 10.661 0 0 1-3.987-.026l.067.011a11.463 11.463 0 0 1-2.301-.678l.076.028a8.762 8.762 0 0 1-1.15-.536l.045.023c-.046-.03-.091-.045-.136-.076-.031-.015-.046-.03-.063-.03-.273-.151-.424-.257-.424-.257s.726 1.193 2.649 1.766c-.454.574-1.014 1.238-1.014 1.238-3.344-.106-4.616-2.279-4.616-2.279 0-4.816 2.179-8.726 2.179-8.726 2.179-1.616 4.237-1.57 4.237-1.57l.151.181c-2.724.77-3.965 1.963-3.965 1.963s.332-.181.893-.423c1.619-.709 2.906-.891 3.438-.951.076-.017.165-.028.255-.031h.002a13.076 13.076 0 0 1 3.116-.025l-.059-.005c1.697.2 3.238.707 4.621 1.467l-.065-.033s-1.196-1.134-3.769-1.903l.212-.241s2.073-.046 4.238 1.572c0 0 2.179 3.91 2.179 8.726 0-.017-1.272 2.156-4.616 2.262z" />
      <path
        d="M13.253 13.625c-.863 0-1.544.74-1.544 1.661s.696 1.661 1.544 1.661c.863 0 1.544-.739 1.544-1.661.016-.922-.681-1.661-1.544-1.661zm5.524 0c-.863 0-1.544.74-1.544 1.661s.696 1.661 1.544 1.661c.863 0 1.544-.739 1.544-1.661s-.696-1.661-1.544-1.661z" />
    </symbol>
    <symbol id="icon-close" viewBox="0 0 32 32">
      <path stroke-linecap="round" stroke-linejoin="round" stroke-width="4.571"
        d="M29.334 2.666 2.667 29.333m0-26.667 26.667 26.667" />
    </symbol>
    <symbol id="icon-tiktok-1" viewBox="0 0 32 32">
      <path
        d="M18 0h3.96c.288 1.43 1.08 3.234 2.47 5.024C25.79 6.778 27.594 8 30 8v4c-3.506 0-6.14-1.628-8-3.658V22c0 5.523-4.477 10-10 10S2 27.523 2 22s4.477-10 10-10v4a6 6 0 1 0 6 6z" />
    </symbol>
  </defs>
</svg>